<svg width="48" height="48" viewBox="0 0 48 48" fill="none" xmlns="http://www.w3.org/2000/svg" role="img" aria-label="NamAsta Diagnostics">
  <defs>
    <linearGradient id="bg" x1="2" y1="2" x2="46" y2="46" gradientUnits="userSpaceOnUse">
      <stop stop-color="#0c1a3e"/>
      <stop offset="0.5" stop-color="#0f2f5e"/>
      <stop offset="1" stop-color="#0a3d52"/>
    </linearGradient>
    <linearGradient id="liquid" x1="24" y1="24" x2="24" y2="37" gradientUnits="userSpaceOnUse">
      <stop stop-color="#34d9f0"/>
      <stop offset="1" stop-color="#0891b2"/>
    </linearGradient>
    <radialGradient id="gloss" cx="0.22" cy="0.1" r="0.85">
      <stop stop-color="#ffffff" stop-opacity="0.42"/>
      <stop offset="0.5" stop-color="#ffffff" stop-opacity="0.05"/>
      <stop offset="1" stop-color="#ffffff" stop-opacity="0"/>
    </radialGradient>
    <clipPath id="tube">
      <path d="M 16.4,12 L 16.4,30 Q 16.4,36.6 24,36.6 Q 31.6,36.6 31.6,30 L 31.6,12 Z"/>
    </clipPath>
  </defs>
  <rect x="2" y="2" width="44" height="44" rx="13" fill="url(#bg)"/>
  <rect x="2" y="2" width="44" height="44" rx="13" fill="url(#gloss)"/>
  <rect x="2.6" y="2.6" width="42.8" height="42.8" rx="12.5" stroke="#ffffff" stroke-opacity="0.14"/>
  <g clip-path="url(#tube)">
    <rect x="15" y="25.5" width="18" height="13" fill="url(#liquid)"/>
    <ellipse cx="24" cy="25.7" rx="7.6" ry="1.5" fill="#bff5ff" opacity="0.55"/>
    <circle cx="20.3" cy="31" r="1.25" fill="#ffffff" opacity="0.4"/>
    <circle cx="27.2" cy="33.2" r="1.6" fill="#ffffff" opacity="0.3"/>
  </g>
  <path d="M 15,12 L 15,30 Q 15,38 24,38 Q 33,38 33,30 L 33,12" stroke="#ffffff" stroke-width="2.4" stroke-linecap="round" stroke-linejoin="round" fill="none"/>
  <ellipse cx="24" cy="12" rx="9" ry="2.2" stroke="#ffffff" stroke-width="2.1" fill="none"/>
  <path d="M 16,19 L 19,19 L 20.8,13.5 L 23,23 L 24.8,19 L 32,19" stroke="#000000" stroke-opacity="0.28" stroke-width="3.4" stroke-linecap="round" stroke-linejoin="round" fill="none"/>
  <path d="M 16,19 L 19,19 L 20.8,13.5 L 23,23 L 24.8,19 L 32,19" stroke="#7df0ff" stroke-width="2" stroke-linecap="round" stroke-linejoin="round" fill="none"/>
  <circle cx="20.8" cy="13.5" r="1.7" fill="#ffffff"/>
  <circle cx="20.8" cy="13.5" r="0.9" fill="#22d3ee"/>
</svg>
