<svg width="48" height="48" viewBox="0 0 48 48" fill="none" xmlns="http://www.w3.org/2000/svg" role="img" aria-label="NamAsta Diagnostics">
  <defs>
    <linearGradient id="bg" x1="2" y1="2" x2="46" y2="46" gradientUnits="userSpaceOnUse">
      <stop stop-color="#7c83ff"/>
      <stop offset="0.5" stop-color="#6d28d9"/>
      <stop offset="1" stop-color="#0891b2"/>
    </linearGradient>
    <linearGradient id="petal" x1="24" y1="13" x2="24" y2="33" gradientUnits="userSpaceOnUse">
      <stop stop-color="#ffffff"/>
      <stop offset="1" stop-color="#dbe3ff"/>
    </linearGradient>
  </defs>
  <rect x="1.5" y="1.5" width="45" height="45" rx="13" fill="url(#bg)"/>
  <rect x="2" y="2" width="44" height="44" rx="12.5" stroke="#ffffff" stroke-opacity="0.18"/>
  <g>
    <path d="M24 32 C 21 26.5 21 20.5 24 15 C 27 20.5 27 26.5 24 32 Z" fill="url(#petal)" transform="rotate(-58 24 32)" fill-opacity="0.82"/>
    <path d="M24 32 C 21 26.5 21 20.5 24 15 C 27 20.5 27 26.5 24 32 Z" fill="url(#petal)" transform="rotate(-29 24 32)" fill-opacity="0.82"/>
    <path d="M24 32 C 21 26.5 21 20.5 24 15 C 27 20.5 27 26.5 24 32 Z" fill="url(#petal)"/>
    <path d="M24 32 C 21 26.5 21 20.5 24 15 C 27 20.5 27 26.5 24 32 Z" fill="url(#petal)" transform="rotate(29 24 32)" fill-opacity="0.82"/>
    <path d="M24 32 C 21 26.5 21 20.5 24 15 C 27 20.5 27 26.5 24 32 Z" fill="url(#petal)" transform="rotate(58 24 32)" fill-opacity="0.82"/>
    <path d="M11 35.5h6l2-4 3 8 2.5-5.5H35" stroke="#ffffff" stroke-opacity="0.9" stroke-width="1.7" stroke-linecap="round" stroke-linejoin="round" fill="none"/>
  </g>
</svg>
